<svg xmlns="http://www.w3.org/2000/svg" width="900" height="320"><rect width="100%" height="100%" fill="white"/><text x="40" y="22" font-family="sans-serif" font-size="16">Throughput por segundo</text><line x1="40" y1="280" x2="860" y2="280" stroke="#333"/><line x1="40" y1="40" x2="40" y2="280" stroke="#333"/><polyline fill="none" stroke="#1769aa" stroke-width="2" points="40.0,40.0 53.9,77.0 67.8,95.6 81.7,110.4 95.6,73.8 109.5,129.5 123.4,152.0 137.3,147.7 151.2,141.1 165.1,143.1 179.0,154.4 192.9,166.4 206.8,165.3 220.7,152.0 234.6,167.6 248.5,192.1 262.4,185.1 276.3,176.1 290.2,201.8 304.1,167.2 318.0,188.6 331.9,172.6 345.8,183.5 359.7,192.9 373.6,194.0 387.5,196.4 401.4,215.8 415.3,211.9 429.2,215.8 443.1,208.0 456.9,232.9 470.8,210.0 484.7,222.0 498.6,184.3 512.5,189.0 526.4,211.5 540.3,199.1 554.2,230.2 568.1,217.4 582.0,223.6 595.9,218.9 609.8,240.3 623.7,234.9 637.6,227.9 651.5,227.1 665.4,223.6 679.3,231.8 693.2,222.8 707.1,236.0 721.0,228.3 734.9,229.8 748.8,241.1 762.7,232.2 776.6,237.6 790.5,240.3 804.4,243.0 818.3,234.1 832.2,232.9 846.1,239.2 860.0,238.4 "/><text x="8" y="45" font-family="sans-serif" font-size="12">617</text><text x="820" y="305" font-family="sans-serif" font-size="12">segundos</text></svg>